<svg width="1708" height="3174" viewBox="0 0 1708 3174" fill="none" xmlns="http://www.w3.org/2000/svg">
<path d="M199.5 3064.33C188.522 2702.4 81.2232 2351.93 35.6565 1995.6C0.127078 1717.76 6.74305 1435.48 6.74305 1155.02C6.74305 1065.35 -1.31727 977.479 35.6565 898.358C65.2159 835.103 103.462 768.857 145.956 876.63C191.487 992.106 195.888 1116.87 235.909 1231.06C243.827 1253.65 241.139 1291.46 245.547 1316.61C253.36 1361.2 265.998 1417.92 266.964 1463.28C268.107 1516.88 276.001 1568 276.602 1622.16C277.235 1679.11 275.84 1763.67 291.059 1817.71C306.253 1871.66 315.153 1952.29 315.153 2007.82C315.153 2165.12 319.782 1693.09 314.618 1535.93C304.876 1239.43 257.326 949.346 257.326 653.922C257.326 586.061 275.358 368.602 348.35 351.773C455.263 327.123 500.985 628.937 525.044 720.463C549.105 812 552.286 909.27 563.595 1004.28C575.242 1102.13 585.012 1202.57 585.012 1301.68C585.012 1466.39 604.288 1637.09 604.288 1799.37C604.288 1848.71 604.288 1898.05 604.288 1947.39C604.288 1954.15 610.8 1993.91 611.784 1990.17C626.85 1932.85 614.691 1844.47 613.391 1785.12C610.825 1667.97 604.974 1548.76 596.792 1432.04C590.017 1335.39 587.654 1241.92 577.516 1145.51C567.996 1054.96 558.716 961.112 556.099 869.84C553.622 783.466 536.823 702.209 536.823 613.862C536.823 435.436 553.958 275.725 606.43 109.374C614.895 82.536 648.135 19.7853 669.611 6.16818C698.722 -12.2899 755.64 193.67 773.485 222.765C810.059 282.395 831.934 383.914 845.769 457.016C869.397 581.862 908.276 713.694 912.698 842.681C917.097 970.985 930.802 1106.49 943.754 1233.78C957.98 1373.59 951.25 1517.16 951.25 1658.15C951.25 1721.06 951.25 1783.98 951.25 1846.9C951.25 1873.84 951.25 1900.77 951.25 1927.7C951.25 1932.96 951.25 1955.2 951.25 1953.5C951.25 1878.82 951.25 1804.13 951.25 1729.44C951.25 1401.58 899.913 1063.49 953.391 739.475C969.042 644.652 1024.33 599.036 1059.41 522.199C1102.33 428.184 1174.01 529.889 1210.4 582.629C1299.72 712.079 1316.23 902.159 1334.62 1065.39C1358.2 1274.69 1336.76 1507.82 1336.76 1719.93C1336.76 1868.1 1317.49 2019.03 1317.49 2167.39C1317.49 2286.9 1306.63 2090.27 1322.31 2074.36C1338.55 2057.88 1339.74 2018.83 1346.4 1995.6C1354.48 1967.42 1371.94 1952.51 1382.81 1927.7C1413.12 1858.53 1491.11 1770.45 1554.15 1755.92C1613.19 1742.31 1703 1722.87 1703 1824.5C1703 1890.96 1693.18 1938.45 1650.53 1982.7C1584.65 2051.05 1554.81 2132.9 1522.02 2226.46C1509.23 2262.95 1511.35 2306.47 1498.46 2343.24C1486.43 2377.57 1471.69 2458.01 1471.69 2496.02C1471.69 2524.97 1458.52 2596.08 1447.06 2618.91C1418.19 2676.44 1414.63 2748.29 1392.45 2807.67C1375.58 2852.82 1353.85 2906.34 1327.12 2942.11C1290.33 2991.37 1254.82 3067.37 1207.19 3100.31C1072.45 3193.52 907.67 3166.27 756.352 3162.1C700.085 3160.55 643.439 3127.44 585.012 3125.44C519.344 3123.19 451.756 3100.99 387.437 3100.99C341.219 3100.99 222.931 3099.31 199.5 3039.89" stroke="#D32121" stroke-width="10" stroke-linecap="round"/>
</svg>
